<mxfile>
    <diagram id="y5WSoUMQCe6r-ZuWclGI" name="Page-1">
        <mxGraphModel dx="1673" dy="929" grid="1" gridSize="10" guides="1" tooltips="1" connect="1" arrows="1" fold="1" page="1" pageScale="1" pageWidth="850" pageHeight="1100" math="0" shadow="0">
            <root>
                <mxCell id="0"/>
                <mxCell id="1" parent="0"/>
                <mxCell id="17" value="" style="endArrow=classic;html=1;" parent="1" edge="1">
                    <mxGeometry width="50" height="50" relative="1" as="geometry">
                        <mxPoint x="385" y="694.5" as="sourcePoint"/>
                        <mxPoint x="480" y="694.5" as="targetPoint"/>
                    </mxGeometry>
                </mxCell>
                <mxCell id="2" value="Is correct?" style="html=1;whiteSpace=wrap;aspect=fixed;shape=isoRectangle;" parent="1" vertex="1">
                    <mxGeometry x="235" y="650" width="150" height="90" as="geometry"/>
                </mxCell>
                <mxCell id="3" value="Show word" style="rounded=1;whiteSpace=wrap;html=1;" parent="1" vertex="1">
                    <mxGeometry x="250" y="230" width="120" height="60" as="geometry"/>
                </mxCell>
                <mxCell id="4" value="Level up" style="rounded=1;whiteSpace=wrap;html=1;" parent="1" vertex="1">
                    <mxGeometry x="495" y="230" width="120" height="60" as="geometry"/>
                </mxCell>
                <mxCell id="6" value="Start" style="ellipse;whiteSpace=wrap;html=1;aspect=fixed;" parent="1" vertex="1">
                    <mxGeometry x="270" y="70" width="80" height="80" as="geometry"/>
                </mxCell>
                <mxCell id="7" value="End" style="ellipse;whiteSpace=wrap;html=1;aspect=fixed;" parent="1" vertex="1">
                    <mxGeometry x="720" y="824" width="80" height="80" as="geometry"/>
                </mxCell>
                <mxCell id="9" value="" style="endArrow=classic;html=1;" parent="1" edge="1">
                    <mxGeometry width="50" height="50" relative="1" as="geometry">
                        <mxPoint x="309.71000000000004" y="150" as="sourcePoint"/>
                        <mxPoint x="309.71000000000004" y="230" as="targetPoint"/>
                    </mxGeometry>
                </mxCell>
                <mxCell id="10" value="Clean" style="rounded=1;whiteSpace=wrap;html=1;" parent="1" vertex="1">
                    <mxGeometry x="250" y="370" width="120" height="60" as="geometry"/>
                </mxCell>
                <mxCell id="11" value="" style="endArrow=classic;html=1;" parent="1" edge="1">
                    <mxGeometry width="50" height="50" relative="1" as="geometry">
                        <mxPoint x="309.71000000000004" y="290" as="sourcePoint"/>
                        <mxPoint x="309.71000000000004" y="370" as="targetPoint"/>
                    </mxGeometry>
                </mxCell>
                <mxCell id="12" value="Capture input" style="rounded=1;whiteSpace=wrap;html=1;" parent="1" vertex="1">
                    <mxGeometry x="250" y="510" width="120" height="60" as="geometry"/>
                </mxCell>
                <mxCell id="13" value="" style="endArrow=classic;html=1;" parent="1" edge="1">
                    <mxGeometry width="50" height="50" relative="1" as="geometry">
                        <mxPoint x="309.71000000000004" y="430" as="sourcePoint"/>
                        <mxPoint x="309.71000000000004" y="510" as="targetPoint"/>
                    </mxGeometry>
                </mxCell>
                <mxCell id="14" value="" style="endArrow=classic;html=1;" parent="1" edge="1">
                    <mxGeometry width="50" height="50" relative="1" as="geometry">
                        <mxPoint x="309.50000000000006" y="570" as="sourcePoint"/>
                        <mxPoint x="309.50000000000006" y="650" as="targetPoint"/>
                    </mxGeometry>
                </mxCell>
                <mxCell id="16" value="" style="endArrow=classic;html=1;" parent="1" edge="1">
                    <mxGeometry width="50" height="50" relative="1" as="geometry">
                        <mxPoint x="309.5" y="740" as="sourcePoint"/>
                        <mxPoint x="309.5" y="820" as="targetPoint"/>
                    </mxGeometry>
                </mxCell>
                <mxCell id="18" value="Yes" style="text;html=1;align=center;verticalAlign=middle;resizable=0;points=[];autosize=1;" parent="1" vertex="1">
                    <mxGeometry x="405" y="670" width="40" height="20" as="geometry"/>
                </mxCell>
                <mxCell id="19" value="No" style="text;html=1;align=center;verticalAlign=middle;resizable=0;points=[];autosize=1;" parent="1" vertex="1">
                    <mxGeometry x="315" y="760" width="30" height="20" as="geometry"/>
                </mxCell>
                <mxCell id="21" value="3 corrects in around?" style="html=1;whiteSpace=wrap;aspect=fixed;shape=isoRectangle;" parent="1" vertex="1">
                    <mxGeometry x="480" y="650" width="150" height="90" as="geometry"/>
                </mxCell>
                <mxCell id="23" value="" style="endArrow=classic;html=1;entryX=0.5;entryY=1;entryDx=0;entryDy=0;" parent="1" target="4" edge="1">
                    <mxGeometry width="50" height="50" relative="1" as="geometry">
                        <mxPoint x="554.58" y="652" as="sourcePoint"/>
                        <mxPoint x="553.95" y="585.99" as="targetPoint"/>
                        <Array as="points">
                            <mxPoint x="555" y="612"/>
                        </Array>
                    </mxGeometry>
                </mxCell>
                <mxCell id="24" value="Yes" style="text;html=1;align=center;verticalAlign=middle;resizable=0;points=[];autosize=1;" parent="1" vertex="1">
                    <mxGeometry x="560" y="610" width="40" height="20" as="geometry"/>
                </mxCell>
                <mxCell id="26" value="3 incorrects?" style="html=1;whiteSpace=wrap;aspect=fixed;shape=isoRectangle;" parent="1" vertex="1">
                    <mxGeometry x="234" y="819" width="150" height="90" as="geometry"/>
                </mxCell>
                <mxCell id="27" value="" style="endArrow=classic;html=1;entryX=0;entryY=0.5;entryDx=0;entryDy=0;" parent="1" source="26" target="7" edge="1">
                    <mxGeometry width="50" height="50" relative="1" as="geometry">
                        <mxPoint x="444.9999999999999" y="850" as="sourcePoint"/>
                        <mxPoint x="444.9999999999999" y="930" as="targetPoint"/>
                        <Array as="points"/>
                    </mxGeometry>
                </mxCell>
                <mxCell id="28" value="Yes" style="text;html=1;align=center;verticalAlign=middle;resizable=0;points=[];autosize=1;" parent="1" vertex="1">
                    <mxGeometry x="405" y="830" width="40" height="20" as="geometry"/>
                </mxCell>
                <mxCell id="38" value="" style="endArrow=classic;html=1;exitX=0;exitY=0.5;exitDx=0;exitDy=0;entryX=1;entryY=0.5;entryDx=0;entryDy=0;" parent="1" source="4" target="3" edge="1">
                    <mxGeometry width="50" height="50" relative="1" as="geometry">
                        <mxPoint x="405" y="270" as="sourcePoint"/>
                        <mxPoint x="455" y="220" as="targetPoint"/>
                    </mxGeometry>
                </mxCell>
                <mxCell id="39" value="" style="endArrow=classic;html=1;exitX=-0.004;exitY=0.504;exitDx=0;exitDy=0;exitPerimeter=0;entryX=0.5;entryY=1;entryDx=0;entryDy=0;" parent="1" source="26" target="44" edge="1">
                    <mxGeometry width="50" height="50" relative="1" as="geometry">
                        <mxPoint x="150" y="865" as="sourcePoint"/>
                        <mxPoint x="150" y="250" as="targetPoint"/>
                        <Array as="points">
                            <mxPoint x="140" y="864"/>
                        </Array>
                    </mxGeometry>
                </mxCell>
                <mxCell id="40" value="No" style="text;html=1;strokeColor=none;fillColor=none;align=center;verticalAlign=middle;whiteSpace=wrap;rounded=0;" parent="1" vertex="1">
                    <mxGeometry x="180" y="830" width="40" height="20" as="geometry"/>
                </mxCell>
                <mxCell id="42" value="" style="endArrow=classic;html=1;exitX=0.501;exitY=0.992;exitDx=0;exitDy=0;exitPerimeter=0;entryX=0;entryY=0.5;entryDx=0;entryDy=0;" parent="1" source="21" target="3" edge="1">
                    <mxGeometry width="50" height="50" relative="1" as="geometry">
                        <mxPoint x="410" y="910" as="sourcePoint"/>
                        <mxPoint x="80" y="240" as="targetPoint"/>
                        <Array as="points">
                            <mxPoint x="555" y="1000"/>
                            <mxPoint x="40" y="1000"/>
                            <mxPoint x="40" y="260"/>
                        </Array>
                    </mxGeometry>
                </mxCell>
                <mxCell id="43" value="No" style="text;html=1;strokeColor=none;fillColor=none;align=center;verticalAlign=middle;whiteSpace=wrap;rounded=0;" parent="1" vertex="1">
                    <mxGeometry x="560" y="750" width="40" height="20" as="geometry"/>
                </mxCell>
                <mxCell id="44" value="Level down" style="rounded=1;whiteSpace=wrap;html=1;" parent="1" vertex="1">
                    <mxGeometry x="80" y="510" width="120" height="60" as="geometry"/>
                </mxCell>
                <mxCell id="47" value="" style="endArrow=classic;html=1;exitX=0.5;exitY=0;exitDx=0;exitDy=0;entryX=0;entryY=0.5;entryDx=0;entryDy=0;" parent="1" source="44" target="3" edge="1">
                    <mxGeometry width="50" height="50" relative="1" as="geometry">
                        <mxPoint x="150" y="450" as="sourcePoint"/>
                        <mxPoint x="140" y="260" as="targetPoint"/>
                        <Array as="points">
                            <mxPoint x="140" y="260"/>
                        </Array>
                    </mxGeometry>
                </mxCell>
            </root>
        </mxGraphModel>
    </diagram>
</mxfile>